<?xml version="1.0" encoding="utf-8"?>
<!-- Generator: Adobe Illustrator 26.1.0, SVG Export Plug-In . SVG Version: 6.00 Build 0)  -->
<svg version="1.1" id="Layer_1" xmlns="http://www.w3.org/2000/svg" xmlns:xlink="http://www.w3.org/1999/xlink" x="0px" y="0px"
	 viewBox="0 0 231 231" style="enable-background:new 0 0 231 231;" xml:space="preserve">
<style type="text/css">
	.st0{fill:#FF922B;}
	.st1{fill:none;}
</style>
<g transform="translate(14,14)">
	<g transform="translate(70,0) scale(0.07,0.07)">
		<g transform="">
			<g>
				<circle class="st0" cx="50" cy="50" r="30"/>
			</g>
		</g>
	</g>
	<g transform="translate(77,0) scale(0.07,0.07)">
		<g transform="">
			<g>
				<circle class="st0" cx="50" cy="50" r="30"/>
			</g>
		</g>
	</g>
	<g transform="translate(105,0) scale(0.07,0.07)">
		<g transform="">
			<g>
				<circle class="st0" cx="50" cy="50" r="30"/>
			</g>
		</g>
	</g>
	<g transform="translate(119,0) scale(0.07,0.07)">
		<g transform="">
			<g>
				<circle class="st0" cx="50" cy="50" r="30"/>
			</g>
		</g>
	</g>
	<g transform="translate(126,0) scale(0.07,0.07)">
		<g transform="">
			<g>
				<circle class="st0" cx="50" cy="50" r="30"/>
			</g>
		</g>
	</g>
	<g transform="translate(133,0) scale(0.07,0.07)">
		<g transform="">
			<g>
				<circle class="st0" cx="50" cy="50" r="30"/>
			</g>
		</g>
	</g>
	<g transform="translate(56,7) scale(0.07,0.07)">
		<g transform="">
			<g>
				<circle class="st0" cx="50" cy="50" r="30"/>
			</g>
		</g>
	</g>
	<g transform="translate(70,7) scale(0.07,0.07)">
		<g transform="">
			<g>
				<circle class="st0" cx="50" cy="50" r="30"/>
			</g>
		</g>
	</g>
	<g transform="translate(84,7) scale(0.07,0.07)">
		<g transform="">
			<g>
				<circle class="st0" cx="50" cy="50" r="30"/>
			</g>
		</g>
	</g>
	<g transform="translate(91,7) scale(0.07,0.07)">
		<g transform="">
			<g>
				<circle class="st0" cx="50" cy="50" r="30"/>
			</g>
		</g>
	</g>
	<g transform="translate(112,7) scale(0.07,0.07)">
		<g transform="">
			<g>
				<circle class="st0" cx="50" cy="50" r="30"/>
			</g>
		</g>
	</g>
	<g transform="translate(140,7) scale(0.07,0.07)">
		<g transform="">
			<g>
				<circle class="st0" cx="50" cy="50" r="30"/>
			</g>
		</g>
	</g>
	<g transform="translate(63,14) scale(0.07,0.07)">
		<g transform="">
			<g>
				<circle class="st0" cx="50" cy="50" r="30"/>
			</g>
		</g>
	</g>
	<g transform="translate(70,14) scale(0.07,0.07)">
		<g transform="">
			<g>
				<circle class="st0" cx="50" cy="50" r="30"/>
			</g>
		</g>
	</g>
	<g transform="translate(105,14) scale(0.07,0.07)">
		<g transform="">
			<g>
				<circle class="st0" cx="50" cy="50" r="30"/>
			</g>
		</g>
	</g>
	<g transform="translate(112,14) scale(0.07,0.07)">
		<g transform="">
			<g>
				<circle class="st0" cx="50" cy="50" r="30"/>
			</g>
		</g>
	</g>
	<g transform="translate(119,14) scale(0.07,0.07)">
		<g transform="">
			<g>
				<circle class="st0" cx="50" cy="50" r="30"/>
			</g>
		</g>
	</g>
	<g transform="translate(126,14) scale(0.07,0.07)">
		<g transform="">
			<g>
				<circle class="st0" cx="50" cy="50" r="30"/>
			</g>
		</g>
	</g>
	<g transform="translate(133,14) scale(0.07,0.07)">
		<g transform="">
			<g>
				<circle class="st0" cx="50" cy="50" r="30"/>
			</g>
		</g>
	</g>
	<g transform="translate(140,14) scale(0.07,0.07)">
		<g transform="">
			<g>
				<circle class="st0" cx="50" cy="50" r="30"/>
			</g>
		</g>
	</g>
	<g transform="translate(70,21) scale(0.07,0.07)">
		<g transform="">
			<g>
				<circle class="st0" cx="50" cy="50" r="30"/>
			</g>
		</g>
	</g>
	<g transform="translate(91,21) scale(0.07,0.07)">
		<g transform="">
			<g>
				<circle class="st0" cx="50" cy="50" r="30"/>
			</g>
		</g>
	</g>
	<g transform="translate(98,21) scale(0.07,0.07)">
		<g transform="">
			<g>
				<circle class="st0" cx="50" cy="50" r="30"/>
			</g>
		</g>
	</g>
	<g transform="translate(105,21) scale(0.07,0.07)">
		<g transform="">
			<g>
				<circle class="st0" cx="50" cy="50" r="30"/>
			</g>
		</g>
	</g>
	<g transform="translate(112,21) scale(0.07,0.07)">
		<g transform="">
			<g>
				<circle class="st0" cx="50" cy="50" r="30"/>
			</g>
		</g>
	</g>
	<g transform="translate(126,21) scale(0.07,0.07)">
		<g transform="">
			<g>
				<circle class="st0" cx="50" cy="50" r="30"/>
			</g>
		</g>
	</g>
	<g transform="translate(133,21) scale(0.07,0.07)">
		<g transform="">
			<g>
				<circle class="st0" cx="50" cy="50" r="30"/>
			</g>
		</g>
	</g>
	<g transform="translate(63,28) scale(0.07,0.07)">
		<g transform="">
			<g>
				<circle class="st0" cx="50" cy="50" r="30"/>
			</g>
		</g>
	</g>
	<g transform="translate(70,28) scale(0.07,0.07)">
		<g transform="">
			<g>
				<circle class="st0" cx="50" cy="50" r="30"/>
			</g>
		</g>
	</g>
	<g transform="translate(84,28) scale(0.07,0.07)">
		<g transform="">
			<g>
				<circle class="st0" cx="50" cy="50" r="30"/>
			</g>
		</g>
	</g>
	<g transform="translate(98,28) scale(0.07,0.07)">
		<g transform="">
			<g>
				<circle class="st0" cx="50" cy="50" r="30"/>
			</g>
		</g>
	</g>
	<g transform="translate(112,28) scale(0.07,0.07)">
		<g transform="">
			<g>
				<circle class="st0" cx="50" cy="50" r="30"/>
			</g>
		</g>
	</g>
	<g transform="translate(126,28) scale(0.07,0.07)">
		<g transform="">
			<g>
				<circle class="st0" cx="50" cy="50" r="30"/>
			</g>
		</g>
	</g>
	<g transform="translate(56,35) scale(0.07,0.07)">
		<g transform="">
			<g>
				<circle class="st0" cx="50" cy="50" r="30"/>
			</g>
		</g>
	</g>
	<g transform="translate(126,35) scale(0.07,0.07)">
		<g transform="">
			<g>
				<circle class="st0" cx="50" cy="50" r="30"/>
			</g>
		</g>
	</g>
	<g transform="translate(133,35) scale(0.07,0.07)">
		<g transform="">
			<g>
				<circle class="st0" cx="50" cy="50" r="30"/>
			</g>
		</g>
	</g>
	<g transform="translate(140,35) scale(0.07,0.07)">
		<g transform="">
			<g>
				<circle class="st0" cx="50" cy="50" r="30"/>
			</g>
		</g>
	</g>
	<g transform="translate(56,42) scale(0.07,0.07)">
		<g transform="">
			<g>
				<circle class="st0" cx="50" cy="50" r="30"/>
			</g>
		</g>
	</g>
	<g transform="translate(70,42) scale(0.07,0.07)">
		<g transform="">
			<g>
				<circle class="st0" cx="50" cy="50" r="30"/>
			</g>
		</g>
	</g>
	<g transform="translate(84,42) scale(0.07,0.07)">
		<g transform="">
			<g>
				<circle class="st0" cx="50" cy="50" r="30"/>
			</g>
		</g>
	</g>
	<g transform="translate(98,42) scale(0.07,0.07)">
		<g transform="">
			<g>
				<circle class="st0" cx="50" cy="50" r="30"/>
			</g>
		</g>
	</g>
	<g transform="translate(112,42) scale(0.07,0.07)">
		<g transform="">
			<g>
				<circle class="st0" cx="50" cy="50" r="30"/>
			</g>
		</g>
	</g>
	<g transform="translate(126,42) scale(0.07,0.07)">
		<g transform="">
			<g>
				<circle class="st0" cx="50" cy="50" r="30"/>
			</g>
		</g>
	</g>
	<g transform="translate(140,42) scale(0.07,0.07)">
		<g transform="">
			<g>
				<circle class="st0" cx="50" cy="50" r="30"/>
			</g>
		</g>
	</g>
	<g transform="translate(56,49) scale(0.07,0.07)">
		<g transform="">
			<g>
				<circle class="st0" cx="50" cy="50" r="30"/>
			</g>
		</g>
	</g>
	<g transform="translate(63,49) scale(0.07,0.07)">
		<g transform="">
			<g>
				<circle class="st0" cx="50" cy="50" r="30"/>
			</g>
		</g>
	</g>
	<g transform="translate(70,49) scale(0.07,0.07)">
		<g transform="">
			<g>
				<circle class="st0" cx="50" cy="50" r="30"/>
			</g>
		</g>
	</g>
	<g transform="translate(77,49) scale(0.07,0.07)">
		<g transform="">
			<g>
				<circle class="st0" cx="50" cy="50" r="30"/>
			</g>
		</g>
	</g>
	<g transform="translate(84,49) scale(0.07,0.07)">
		<g transform="">
			<g>
				<circle class="st0" cx="50" cy="50" r="30"/>
			</g>
		</g>
	</g>
	<g transform="translate(91,49) scale(0.07,0.07)">
		<g transform="">
			<g>
				<circle class="st0" cx="50" cy="50" r="30"/>
			</g>
		</g>
	</g>
	<g transform="translate(98,49) scale(0.07,0.07)">
		<g transform="">
			<g>
				<circle class="st0" cx="50" cy="50" r="30"/>
			</g>
		</g>
	</g>
	<g transform="translate(112,49) scale(0.07,0.07)">
		<g transform="">
			<g>
				<circle class="st0" cx="50" cy="50" r="30"/>
			</g>
		</g>
	</g>
	<g transform="translate(119,49) scale(0.07,0.07)">
		<g transform="">
			<g>
				<circle class="st0" cx="50" cy="50" r="30"/>
			</g>
		</g>
	</g>
	<g transform="translate(126,49) scale(0.07,0.07)">
		<g transform="">
			<g>
				<circle class="st0" cx="50" cy="50" r="30"/>
			</g>
		</g>
	</g>
	<g transform="translate(133,49) scale(0.07,0.07)">
		<g transform="">
			<g>
				<circle class="st0" cx="50" cy="50" r="30"/>
			</g>
		</g>
	</g>
	<g transform="translate(28,56) scale(0.07,0.07)">
		<g transform="">
			<g>
				<circle class="st0" cx="50" cy="50" r="30"/>
			</g>
		</g>
	</g>
	<g transform="translate(35,56) scale(0.07,0.07)">
		<g transform="">
			<g>
				<circle class="st0" cx="50" cy="50" r="30"/>
			</g>
		</g>
	</g>
	<g transform="translate(42,56) scale(0.07,0.07)">
		<g transform="">
			<g>
				<circle class="st0" cx="50" cy="50" r="30"/>
			</g>
		</g>
	</g>
	<g transform="translate(49,56) scale(0.07,0.07)">
		<g transform="">
			<g>
				<circle class="st0" cx="50" cy="50" r="30"/>
			</g>
		</g>
	</g>
	<g transform="translate(70,56) scale(0.07,0.07)">
		<g transform="">
			<g>
				<circle class="st0" cx="50" cy="50" r="30"/>
			</g>
		</g>
	</g>
	<g transform="translate(77,56) scale(0.07,0.07)">
		<g transform="">
			<g>
				<circle class="st0" cx="50" cy="50" r="30"/>
			</g>
		</g>
	</g>
	<g transform="translate(105,56) scale(0.07,0.07)">
		<g transform="">
			<g>
				<circle class="st0" cx="50" cy="50" r="30"/>
			</g>
		</g>
	</g>
	<g transform="translate(126,56) scale(0.07,0.07)">
		<g transform="">
			<g>
				<circle class="st0" cx="50" cy="50" r="30"/>
			</g>
		</g>
	</g>
	<g transform="translate(154,56) scale(0.07,0.07)">
		<g transform="">
			<g>
				<circle class="st0" cx="50" cy="50" r="30"/>
			</g>
		</g>
	</g>
	<g transform="translate(161,56) scale(0.07,0.07)">
		<g transform="">
			<g>
				<circle class="st0" cx="50" cy="50" r="30"/>
			</g>
		</g>
	</g>
	<g transform="translate(189,56) scale(0.07,0.07)">
		<g transform="">
			<g>
				<circle class="st0" cx="50" cy="50" r="30"/>
			</g>
		</g>
	</g>
	<g transform="translate(0,63) scale(0.07,0.07)">
		<g transform="">
			<g>
				<circle class="st0" cx="50" cy="50" r="30"/>
			</g>
		</g>
	</g>
	<g transform="translate(28,63) scale(0.07,0.07)">
		<g transform="">
			<g>
				<circle class="st0" cx="50" cy="50" r="30"/>
			</g>
		</g>
	</g>
	<g transform="translate(35,63) scale(0.07,0.07)">
		<g transform="">
			<g>
				<circle class="st0" cx="50" cy="50" r="30"/>
			</g>
		</g>
	</g>
	<g transform="translate(84,63) scale(0.07,0.07)">
		<g transform="">
			<g>
				<circle class="st0" cx="50" cy="50" r="30"/>
			</g>
		</g>
	</g>
	<g transform="translate(98,63) scale(0.07,0.07)">
		<g transform="">
			<g>
				<circle class="st0" cx="50" cy="50" r="30"/>
			</g>
		</g>
	</g>
	<g transform="translate(133,63) scale(0.07,0.07)">
		<g transform="">
			<g>
				<circle class="st0" cx="50" cy="50" r="30"/>
			</g>
		</g>
	</g>
	<g transform="translate(140,63) scale(0.07,0.07)">
		<g transform="">
			<g>
				<circle class="st0" cx="50" cy="50" r="30"/>
			</g>
		</g>
	</g>
	<g transform="translate(168,63) scale(0.07,0.07)">
		<g transform="">
			<g>
				<circle class="st0" cx="50" cy="50" r="30"/>
			</g>
		</g>
	</g>
	<g transform="translate(189,63) scale(0.07,0.07)">
		<g transform="">
			<g>
				<circle class="st0" cx="50" cy="50" r="30"/>
			</g>
		</g>
	</g>
	<g transform="translate(196,63) scale(0.07,0.07)">
		<g transform="">
			<g>
				<circle class="st0" cx="50" cy="50" r="30"/>
			</g>
		</g>
	</g>
	<g transform="translate(14,70) scale(0.07,0.07)">
		<g transform="">
			<g>
				<circle class="st0" cx="50" cy="50" r="30"/>
			</g>
		</g>
	</g>
	<g transform="translate(21,70) scale(0.07,0.07)">
		<g transform="">
			<g>
				<circle class="st0" cx="50" cy="50" r="30"/>
			</g>
		</g>
	</g>
	<g transform="translate(35,70) scale(0.07,0.07)">
		<g transform="">
			<g>
				<circle class="st0" cx="50" cy="50" r="30"/>
			</g>
		</g>
	</g>
	<g transform="translate(42,70) scale(0.07,0.07)">
		<g transform="">
			<g>
				<circle class="st0" cx="50" cy="50" r="30"/>
			</g>
		</g>
	</g>
	<g transform="translate(49,70) scale(0.07,0.07)">
		<g transform="">
			<g>
				<circle class="st0" cx="50" cy="50" r="30"/>
			</g>
		</g>
	</g>
	<g transform="translate(56,70) scale(0.07,0.07)">
		<g transform="">
			<g>
				<circle class="st0" cx="50" cy="50" r="30"/>
			</g>
		</g>
	</g>
	<g transform="translate(63,70) scale(0.07,0.07)">
		<g transform="">
			<g>
				<circle class="st0" cx="50" cy="50" r="30"/>
			</g>
		</g>
	</g>
	<g transform="translate(140,70) scale(0.07,0.07)">
		<g transform="">
			<g>
				<circle class="st0" cx="50" cy="50" r="30"/>
			</g>
		</g>
	</g>
	<g transform="translate(147,70) scale(0.07,0.07)">
		<g transform="">
			<g>
				<circle class="st0" cx="50" cy="50" r="30"/>
			</g>
		</g>
	</g>
	<g transform="translate(168,70) scale(0.07,0.07)">
		<g transform="">
			<g>
				<circle class="st0" cx="50" cy="50" r="30"/>
			</g>
		</g>
	</g>
	<g transform="translate(182,70) scale(0.07,0.07)">
		<g transform="">
			<g>
				<circle class="st0" cx="50" cy="50" r="30"/>
			</g>
		</g>
	</g>
	<g transform="translate(196,70) scale(0.07,0.07)">
		<g transform="">
			<g>
				<circle class="st0" cx="50" cy="50" r="30"/>
			</g>
		</g>
	</g>
	<g transform="translate(0,77) scale(0.07,0.07)">
		<g transform="">
			<g>
				<circle class="st0" cx="50" cy="50" r="30"/>
			</g>
		</g>
	</g>
	<g transform="translate(7,77) scale(0.07,0.07)">
		<g transform="">
			<g>
				<circle class="st0" cx="50" cy="50" r="30"/>
			</g>
		</g>
	</g>
	<g transform="translate(21,77) scale(0.07,0.07)">
		<g transform="">
			<g>
				<circle class="st0" cx="50" cy="50" r="30"/>
			</g>
		</g>
	</g>
	<g transform="translate(35,77) scale(0.07,0.07)">
		<g transform="">
			<g>
				<circle class="st0" cx="50" cy="50" r="30"/>
			</g>
		</g>
	</g>
	<g transform="translate(147,77) scale(0.07,0.07)">
		<g transform="">
			<g>
				<circle class="st0" cx="50" cy="50" r="30"/>
			</g>
		</g>
	</g>
	<g transform="translate(168,77) scale(0.07,0.07)">
		<g transform="">
			<g>
				<circle class="st0" cx="50" cy="50" r="30"/>
			</g>
		</g>
	</g>
	<g transform="translate(175,77) scale(0.07,0.07)">
		<g transform="">
			<g>
				<circle class="st0" cx="50" cy="50" r="30"/>
			</g>
		</g>
	</g>
	<g transform="translate(189,77) scale(0.07,0.07)">
		<g transform="">
			<g>
				<circle class="st0" cx="50" cy="50" r="30"/>
			</g>
		</g>
	</g>
	<g transform="translate(196,77) scale(0.07,0.07)">
		<g transform="">
			<g>
				<circle class="st0" cx="50" cy="50" r="30"/>
			</g>
		</g>
	</g>
	<g transform="translate(0,84) scale(0.07,0.07)">
		<g transform="">
			<g>
				<circle class="st0" cx="50" cy="50" r="30"/>
			</g>
		</g>
	</g>
	<g transform="translate(21,84) scale(0.07,0.07)">
		<g transform="">
			<g>
				<circle class="st0" cx="50" cy="50" r="30"/>
			</g>
		</g>
	</g>
	<g transform="translate(28,84) scale(0.07,0.07)">
		<g transform="">
			<g>
				<circle class="st0" cx="50" cy="50" r="30"/>
			</g>
		</g>
	</g>
	<g transform="translate(35,84) scale(0.07,0.07)">
		<g transform="">
			<g>
				<circle class="st0" cx="50" cy="50" r="30"/>
			</g>
		</g>
	</g>
	<g transform="translate(42,84) scale(0.07,0.07)">
		<g transform="">
			<g>
				<circle class="st0" cx="50" cy="50" r="30"/>
			</g>
		</g>
	</g>
	<g transform="translate(49,84) scale(0.07,0.07)">
		<g transform="">
			<g>
				<circle class="st0" cx="50" cy="50" r="30"/>
			</g>
		</g>
	</g>
	<g transform="translate(63,84) scale(0.07,0.07)">
		<g transform="">
			<g>
				<circle class="st0" cx="50" cy="50" r="30"/>
			</g>
		</g>
	</g>
	<g transform="translate(133,84) scale(0.07,0.07)">
		<g transform="">
			<g>
				<circle class="st0" cx="50" cy="50" r="30"/>
			</g>
		</g>
	</g>
	<g transform="translate(161,84) scale(0.07,0.07)">
		<g transform="">
			<g>
				<circle class="st0" cx="50" cy="50" r="30"/>
			</g>
		</g>
	</g>
	<g transform="translate(175,84) scale(0.07,0.07)">
		<g transform="">
			<g>
				<circle class="st0" cx="50" cy="50" r="30"/>
			</g>
		</g>
	</g>
	<g transform="translate(196,84) scale(0.07,0.07)">
		<g transform="">
			<g>
				<circle class="st0" cx="50" cy="50" r="30"/>
			</g>
		</g>
	</g>
	<g transform="translate(7,91) scale(0.07,0.07)">
		<g transform="">
			<g>
				<circle class="st0" cx="50" cy="50" r="30"/>
			</g>
		</g>
	</g>
	<g transform="translate(35,91) scale(0.07,0.07)">
		<g transform="">
			<g>
				<circle class="st0" cx="50" cy="50" r="30"/>
			</g>
		</g>
	</g>
	<g transform="translate(49,91) scale(0.07,0.07)">
		<g transform="">
			<g>
				<circle class="st0" cx="50" cy="50" r="30"/>
			</g>
		</g>
	</g>
	<g transform="translate(154,91) scale(0.07,0.07)">
		<g transform="">
			<g>
				<circle class="st0" cx="50" cy="50" r="30"/>
			</g>
		</g>
	</g>
	<g transform="translate(168,91) scale(0.07,0.07)">
		<g transform="">
			<g>
				<circle class="st0" cx="50" cy="50" r="30"/>
			</g>
		</g>
	</g>
	<g transform="translate(182,91) scale(0.07,0.07)">
		<g transform="">
			<g>
				<circle class="st0" cx="50" cy="50" r="30"/>
			</g>
		</g>
	</g>
	<g transform="translate(196,91) scale(0.07,0.07)">
		<g transform="">
			<g>
				<circle class="st0" cx="50" cy="50" r="30"/>
			</g>
		</g>
	</g>
	<g transform="translate(0,98) scale(0.07,0.07)">
		<g transform="">
			<g>
				<circle class="st0" cx="50" cy="50" r="30"/>
			</g>
		</g>
	</g>
	<g transform="translate(7,98) scale(0.07,0.07)">
		<g transform="">
			<g>
				<circle class="st0" cx="50" cy="50" r="30"/>
			</g>
		</g>
	</g>
	<g transform="translate(14,98) scale(0.07,0.07)">
		<g transform="">
			<g>
				<circle class="st0" cx="50" cy="50" r="30"/>
			</g>
		</g>
	</g>
	<g transform="translate(21,98) scale(0.07,0.07)">
		<g transform="">
			<g>
				<circle class="st0" cx="50" cy="50" r="30"/>
			</g>
		</g>
	</g>
	<g transform="translate(35,98) scale(0.07,0.07)">
		<g transform="">
			<g>
				<circle class="st0" cx="50" cy="50" r="30"/>
			</g>
		</g>
	</g>
	<g transform="translate(42,98) scale(0.07,0.07)">
		<g transform="">
			<g>
				<circle class="st0" cx="50" cy="50" r="30"/>
			</g>
		</g>
	</g>
	<g transform="translate(56,98) scale(0.07,0.07)">
		<g transform="">
			<g>
				<circle class="st0" cx="50" cy="50" r="30"/>
			</g>
		</g>
	</g>
	<g transform="translate(63,98) scale(0.07,0.07)">
		<g transform="">
			<g>
				<circle class="st0" cx="50" cy="50" r="30"/>
			</g>
		</g>
	</g>
	<g transform="translate(140,98) scale(0.07,0.07)">
		<g transform="">
			<g>
				<circle class="st0" cx="50" cy="50" r="30"/>
			</g>
		</g>
	</g>
	<g transform="translate(168,98) scale(0.07,0.07)">
		<g transform="">
			<g>
				<circle class="st0" cx="50" cy="50" r="30"/>
			</g>
		</g>
	</g>
	<g transform="translate(189,98) scale(0.07,0.07)">
		<g transform="">
			<g>
				<circle class="st0" cx="50" cy="50" r="30"/>
			</g>
		</g>
	</g>
	<g transform="translate(196,98) scale(0.07,0.07)">
		<g transform="">
			<g>
				<circle class="st0" cx="50" cy="50" r="30"/>
			</g>
		</g>
	</g>
	<g transform="translate(14,105) scale(0.07,0.07)">
		<g transform="">
			<g>
				<circle class="st0" cx="50" cy="50" r="30"/>
			</g>
		</g>
	</g>
	<g transform="translate(21,105) scale(0.07,0.07)">
		<g transform="">
			<g>
				<circle class="st0" cx="50" cy="50" r="30"/>
			</g>
		</g>
	</g>
	<g transform="translate(49,105) scale(0.07,0.07)">
		<g transform="">
			<g>
				<circle class="st0" cx="50" cy="50" r="30"/>
			</g>
		</g>
	</g>
	<g transform="translate(56,105) scale(0.07,0.07)">
		<g transform="">
			<g>
				<circle class="st0" cx="50" cy="50" r="30"/>
			</g>
		</g>
	</g>
	<g transform="translate(63,105) scale(0.07,0.07)">
		<g transform="">
			<g>
				<circle class="st0" cx="50" cy="50" r="30"/>
			</g>
		</g>
	</g>
	<g transform="translate(147,105) scale(0.07,0.07)">
		<g transform="">
			<g>
				<circle class="st0" cx="50" cy="50" r="30"/>
			</g>
		</g>
	</g>
	<g transform="translate(161,105) scale(0.07,0.07)">
		<g transform="">
			<g>
				<circle class="st0" cx="50" cy="50" r="30"/>
			</g>
		</g>
	</g>
	<g transform="translate(175,105) scale(0.07,0.07)">
		<g transform="">
			<g>
				<circle class="st0" cx="50" cy="50" r="30"/>
			</g>
		</g>
	</g>
	<g transform="translate(196,105) scale(0.07,0.07)">
		<g transform="">
			<g>
				<circle class="st0" cx="50" cy="50" r="30"/>
			</g>
		</g>
	</g>
	<g transform="translate(7,112) scale(0.07,0.07)">
		<g transform="">
			<g>
				<circle class="st0" cx="50" cy="50" r="30"/>
			</g>
		</g>
	</g>
	<g transform="translate(28,112) scale(0.07,0.07)">
		<g transform="">
			<g>
				<circle class="st0" cx="50" cy="50" r="30"/>
			</g>
		</g>
	</g>
	<g transform="translate(42,112) scale(0.07,0.07)">
		<g transform="">
			<g>
				<circle class="st0" cx="50" cy="50" r="30"/>
			</g>
		</g>
	</g>
	<g transform="translate(49,112) scale(0.07,0.07)">
		<g transform="">
			<g>
				<circle class="st0" cx="50" cy="50" r="30"/>
			</g>
		</g>
	</g>
	<g transform="translate(56,112) scale(0.07,0.07)">
		<g transform="">
			<g>
				<circle class="st0" cx="50" cy="50" r="30"/>
			</g>
		</g>
	</g>
	<g transform="translate(133,112) scale(0.07,0.07)">
		<g transform="">
			<g>
				<circle class="st0" cx="50" cy="50" r="30"/>
			</g>
		</g>
	</g>
	<g transform="translate(140,112) scale(0.07,0.07)">
		<g transform="">
			<g>
				<circle class="st0" cx="50" cy="50" r="30"/>
			</g>
		</g>
	</g>
	<g transform="translate(147,112) scale(0.07,0.07)">
		<g transform="">
			<g>
				<circle class="st0" cx="50" cy="50" r="30"/>
			</g>
		</g>
	</g>
	<g transform="translate(154,112) scale(0.07,0.07)">
		<g transform="">
			<g>
				<circle class="st0" cx="50" cy="50" r="30"/>
			</g>
		</g>
	</g>
	<g transform="translate(196,112) scale(0.07,0.07)">
		<g transform="">
			<g>
				<circle class="st0" cx="50" cy="50" r="30"/>
			</g>
		</g>
	</g>
	<g transform="translate(0,119) scale(0.07,0.07)">
		<g transform="">
			<g>
				<circle class="st0" cx="50" cy="50" r="30"/>
			</g>
		</g>
	</g>
	<g transform="translate(35,119) scale(0.07,0.07)">
		<g transform="">
			<g>
				<circle class="st0" cx="50" cy="50" r="30"/>
			</g>
		</g>
	</g>
	<g transform="translate(49,119) scale(0.07,0.07)">
		<g transform="">
			<g>
				<circle class="st0" cx="50" cy="50" r="30"/>
			</g>
		</g>
	</g>
	<g transform="translate(63,119) scale(0.07,0.07)">
		<g transform="">
			<g>
				<circle class="st0" cx="50" cy="50" r="30"/>
			</g>
		</g>
	</g>
	<g transform="translate(133,119) scale(0.07,0.07)">
		<g transform="">
			<g>
				<circle class="st0" cx="50" cy="50" r="30"/>
			</g>
		</g>
	</g>
	<g transform="translate(168,119) scale(0.07,0.07)">
		<g transform="">
			<g>
				<circle class="st0" cx="50" cy="50" r="30"/>
			</g>
		</g>
	</g>
	<g transform="translate(175,119) scale(0.07,0.07)">
		<g transform="">
			<g>
				<circle class="st0" cx="50" cy="50" r="30"/>
			</g>
		</g>
	</g>
	<g transform="translate(182,119) scale(0.07,0.07)">
		<g transform="">
			<g>
				<circle class="st0" cx="50" cy="50" r="30"/>
			</g>
		</g>
	</g>
	<g transform="translate(196,119) scale(0.07,0.07)">
		<g transform="">
			<g>
				<circle class="st0" cx="50" cy="50" r="30"/>
			</g>
		</g>
	</g>
	<g transform="translate(14,126) scale(0.07,0.07)">
		<g transform="">
			<g>
				<circle class="st0" cx="50" cy="50" r="30"/>
			</g>
		</g>
	</g>
	<g transform="translate(42,126) scale(0.07,0.07)">
		<g transform="">
			<g>
				<circle class="st0" cx="50" cy="50" r="30"/>
			</g>
		</g>
	</g>
	<g transform="translate(49,126) scale(0.07,0.07)">
		<g transform="">
			<g>
				<circle class="st0" cx="50" cy="50" r="30"/>
			</g>
		</g>
	</g>
	<g transform="translate(133,126) scale(0.07,0.07)">
		<g transform="">
			<g>
				<circle class="st0" cx="50" cy="50" r="30"/>
			</g>
		</g>
	</g>
	<g transform="translate(161,126) scale(0.07,0.07)">
		<g transform="">
			<g>
				<circle class="st0" cx="50" cy="50" r="30"/>
			</g>
		</g>
	</g>
	<g transform="translate(175,126) scale(0.07,0.07)">
		<g transform="">
			<g>
				<circle class="st0" cx="50" cy="50" r="30"/>
			</g>
		</g>
	</g>
	<g transform="translate(196,126) scale(0.07,0.07)">
		<g transform="">
			<g>
				<circle class="st0" cx="50" cy="50" r="30"/>
			</g>
		</g>
	</g>
	<g transform="translate(14,133) scale(0.07,0.07)">
		<g transform="">
			<g>
				<circle class="st0" cx="50" cy="50" r="30"/>
			</g>
		</g>
	</g>
	<g transform="translate(35,133) scale(0.07,0.07)">
		<g transform="">
			<g>
				<circle class="st0" cx="50" cy="50" r="30"/>
			</g>
		</g>
	</g>
	<g transform="translate(56,133) scale(0.07,0.07)">
		<g transform="">
			<g>
				<circle class="st0" cx="50" cy="50" r="30"/>
			</g>
		</g>
	</g>
	<g transform="translate(77,133) scale(0.07,0.07)">
		<g transform="">
			<g>
				<circle class="st0" cx="50" cy="50" r="30"/>
			</g>
		</g>
	</g>
	<g transform="translate(84,133) scale(0.07,0.07)">
		<g transform="">
			<g>
				<circle class="st0" cx="50" cy="50" r="30"/>
			</g>
		</g>
	</g>
	<g transform="translate(91,133) scale(0.07,0.07)">
		<g transform="">
			<g>
				<circle class="st0" cx="50" cy="50" r="30"/>
			</g>
		</g>
	</g>
	<g transform="translate(98,133) scale(0.07,0.07)">
		<g transform="">
			<g>
				<circle class="st0" cx="50" cy="50" r="30"/>
			</g>
		</g>
	</g>
	<g transform="translate(105,133) scale(0.07,0.07)">
		<g transform="">
			<g>
				<circle class="st0" cx="50" cy="50" r="30"/>
			</g>
		</g>
	</g>
	<g transform="translate(126,133) scale(0.07,0.07)">
		<g transform="">
			<g>
				<circle class="st0" cx="50" cy="50" r="30"/>
			</g>
		</g>
	</g>
	<g transform="translate(133,133) scale(0.07,0.07)">
		<g transform="">
			<g>
				<circle class="st0" cx="50" cy="50" r="30"/>
			</g>
		</g>
	</g>
	<g transform="translate(140,133) scale(0.07,0.07)">
		<g transform="">
			<g>
				<circle class="st0" cx="50" cy="50" r="30"/>
			</g>
		</g>
	</g>
	<g transform="translate(161,133) scale(0.07,0.07)">
		<g transform="">
			<g>
				<circle class="st0" cx="50" cy="50" r="30"/>
			</g>
		</g>
	</g>
	<g transform="translate(175,133) scale(0.07,0.07)">
		<g transform="">
			<g>
				<circle class="st0" cx="50" cy="50" r="30"/>
			</g>
		</g>
	</g>
	<g transform="translate(189,133) scale(0.07,0.07)">
		<g transform="">
			<g>
				<circle class="st0" cx="50" cy="50" r="30"/>
			</g>
		</g>
	</g>
	<g transform="translate(0,140) scale(0.07,0.07)">
		<g transform="">
			<g>
				<circle class="st0" cx="50" cy="50" r="30"/>
			</g>
		</g>
	</g>
	<g transform="translate(7,140) scale(0.07,0.07)">
		<g transform="">
			<g>
				<circle class="st0" cx="50" cy="50" r="30"/>
			</g>
		</g>
	</g>
	<g transform="translate(28,140) scale(0.07,0.07)">
		<g transform="">
			<g>
				<circle class="st0" cx="50" cy="50" r="30"/>
			</g>
		</g>
	</g>
	<g transform="translate(42,140) scale(0.07,0.07)">
		<g transform="">
			<g>
				<circle class="st0" cx="50" cy="50" r="30"/>
			</g>
		</g>
	</g>
	<g transform="translate(49,140) scale(0.07,0.07)">
		<g transform="">
			<g>
				<circle class="st0" cx="50" cy="50" r="30"/>
			</g>
		</g>
	</g>
	<g transform="translate(70,140) scale(0.07,0.07)">
		<g transform="">
			<g>
				<circle class="st0" cx="50" cy="50" r="30"/>
			</g>
		</g>
	</g>
	<g transform="translate(77,140) scale(0.07,0.07)">
		<g transform="">
			<g>
				<circle class="st0" cx="50" cy="50" r="30"/>
			</g>
		</g>
	</g>
	<g transform="translate(84,140) scale(0.07,0.07)">
		<g transform="">
			<g>
				<circle class="st0" cx="50" cy="50" r="30"/>
			</g>
		</g>
	</g>
	<g transform="translate(98,140) scale(0.07,0.07)">
		<g transform="">
			<g>
				<circle class="st0" cx="50" cy="50" r="30"/>
			</g>
		</g>
	</g>
	<g transform="translate(112,140) scale(0.07,0.07)">
		<g transform="">
			<g>
				<circle class="st0" cx="50" cy="50" r="30"/>
			</g>
		</g>
	</g>
	<g transform="translate(140,140) scale(0.07,0.07)">
		<g transform="">
			<g>
				<circle class="st0" cx="50" cy="50" r="30"/>
			</g>
		</g>
	</g>
	<g transform="translate(147,140) scale(0.07,0.07)">
		<g transform="">
			<g>
				<circle class="st0" cx="50" cy="50" r="30"/>
			</g>
		</g>
	</g>
	<g transform="translate(154,140) scale(0.07,0.07)">
		<g transform="">
			<g>
				<circle class="st0" cx="50" cy="50" r="30"/>
			</g>
		</g>
	</g>
	<g transform="translate(161,140) scale(0.07,0.07)">
		<g transform="">
			<g>
				<circle class="st0" cx="50" cy="50" r="30"/>
			</g>
		</g>
	</g>
	<g transform="translate(168,140) scale(0.07,0.07)">
		<g transform="">
			<g>
				<circle class="st0" cx="50" cy="50" r="30"/>
			</g>
		</g>
	</g>
	<g transform="translate(56,147) scale(0.07,0.07)">
		<g transform="">
			<g>
				<circle class="st0" cx="50" cy="50" r="30"/>
			</g>
		</g>
	</g>
	<g transform="translate(70,147) scale(0.07,0.07)">
		<g transform="">
			<g>
				<circle class="st0" cx="50" cy="50" r="30"/>
			</g>
		</g>
	</g>
	<g transform="translate(84,147) scale(0.07,0.07)">
		<g transform="">
			<g>
				<circle class="st0" cx="50" cy="50" r="30"/>
			</g>
		</g>
	</g>
	<g transform="translate(98,147) scale(0.07,0.07)">
		<g transform="">
			<g>
				<circle class="st0" cx="50" cy="50" r="30"/>
			</g>
		</g>
	</g>
	<g transform="translate(105,147) scale(0.07,0.07)">
		<g transform="">
			<g>
				<circle class="st0" cx="50" cy="50" r="30"/>
			</g>
		</g>
	</g>
	<g transform="translate(126,147) scale(0.07,0.07)">
		<g transform="">
			<g>
				<circle class="st0" cx="50" cy="50" r="30"/>
			</g>
		</g>
	</g>
	<g transform="translate(133,147) scale(0.07,0.07)">
		<g transform="">
			<g>
				<circle class="st0" cx="50" cy="50" r="30"/>
			</g>
		</g>
	</g>
	<g transform="translate(140,147) scale(0.07,0.07)">
		<g transform="">
			<g>
				<circle class="st0" cx="50" cy="50" r="30"/>
			</g>
		</g>
	</g>
	<g transform="translate(168,147) scale(0.07,0.07)">
		<g transform="">
			<g>
				<circle class="st0" cx="50" cy="50" r="30"/>
			</g>
		</g>
	</g>
	<g transform="translate(182,147) scale(0.07,0.07)">
		<g transform="">
			<g>
				<circle class="st0" cx="50" cy="50" r="30"/>
			</g>
		</g>
	</g>
	<g transform="translate(196,147) scale(0.07,0.07)">
		<g transform="">
			<g>
				<circle class="st0" cx="50" cy="50" r="30"/>
			</g>
		</g>
	</g>
	<g transform="translate(56,154) scale(0.07,0.07)">
		<g transform="">
			<g>
				<circle class="st0" cx="50" cy="50" r="30"/>
			</g>
		</g>
	</g>
	<g transform="translate(63,154) scale(0.07,0.07)">
		<g transform="">
			<g>
				<circle class="st0" cx="50" cy="50" r="30"/>
			</g>
		</g>
	</g>
	<g transform="translate(70,154) scale(0.07,0.07)">
		<g transform="">
			<g>
				<circle class="st0" cx="50" cy="50" r="30"/>
			</g>
		</g>
	</g>
	<g transform="translate(77,154) scale(0.07,0.07)">
		<g transform="">
			<g>
				<circle class="st0" cx="50" cy="50" r="30"/>
			</g>
		</g>
	</g>
	<g transform="translate(84,154) scale(0.07,0.07)">
		<g transform="">
			<g>
				<circle class="st0" cx="50" cy="50" r="30"/>
			</g>
		</g>
	</g>
	<g transform="translate(91,154) scale(0.07,0.07)">
		<g transform="">
			<g>
				<circle class="st0" cx="50" cy="50" r="30"/>
			</g>
		</g>
	</g>
	<g transform="translate(98,154) scale(0.07,0.07)">
		<g transform="">
			<g>
				<circle class="st0" cx="50" cy="50" r="30"/>
			</g>
		</g>
	</g>
	<g transform="translate(105,154) scale(0.07,0.07)">
		<g transform="">
			<g>
				<circle class="st0" cx="50" cy="50" r="30"/>
			</g>
		</g>
	</g>
	<g transform="translate(112,154) scale(0.07,0.07)">
		<g transform="">
			<g>
				<circle class="st0" cx="50" cy="50" r="30"/>
			</g>
		</g>
	</g>
	<g transform="translate(133,154) scale(0.07,0.07)">
		<g transform="">
			<g>
				<circle class="st0" cx="50" cy="50" r="30"/>
			</g>
		</g>
	</g>
	<g transform="translate(140,154) scale(0.07,0.07)">
		<g transform="">
			<g>
				<circle class="st0" cx="50" cy="50" r="30"/>
			</g>
		</g>
	</g>
	<g transform="translate(154,154) scale(0.07,0.07)">
		<g transform="">
			<g>
				<circle class="st0" cx="50" cy="50" r="30"/>
			</g>
		</g>
	</g>
	<g transform="translate(168,154) scale(0.07,0.07)">
		<g transform="">
			<g>
				<circle class="st0" cx="50" cy="50" r="30"/>
			</g>
		</g>
	</g>
	<g transform="translate(196,154) scale(0.07,0.07)">
		<g transform="">
			<g>
				<circle class="st0" cx="50" cy="50" r="30"/>
			</g>
		</g>
	</g>
	<g transform="translate(56,161) scale(0.07,0.07)">
		<g transform="">
			<g>
				<circle class="st0" cx="50" cy="50" r="30"/>
			</g>
		</g>
	</g>
	<g transform="translate(63,161) scale(0.07,0.07)">
		<g transform="">
			<g>
				<circle class="st0" cx="50" cy="50" r="30"/>
			</g>
		</g>
	</g>
	<g transform="translate(70,161) scale(0.07,0.07)">
		<g transform="">
			<g>
				<circle class="st0" cx="50" cy="50" r="30"/>
			</g>
		</g>
	</g>
	<g transform="translate(77,161) scale(0.07,0.07)">
		<g transform="">
			<g>
				<circle class="st0" cx="50" cy="50" r="30"/>
			</g>
		</g>
	</g>
	<g transform="translate(84,161) scale(0.07,0.07)">
		<g transform="">
			<g>
				<circle class="st0" cx="50" cy="50" r="30"/>
			</g>
		</g>
	</g>
	<g transform="translate(105,161) scale(0.07,0.07)">
		<g transform="">
			<g>
				<circle class="st0" cx="50" cy="50" r="30"/>
			</g>
		</g>
	</g>
	<g transform="translate(119,161) scale(0.07,0.07)">
		<g transform="">
			<g>
				<circle class="st0" cx="50" cy="50" r="30"/>
			</g>
		</g>
	</g>
	<g transform="translate(133,161) scale(0.07,0.07)">
		<g transform="">
			<g>
				<circle class="st0" cx="50" cy="50" r="30"/>
			</g>
		</g>
	</g>
	<g transform="translate(140,161) scale(0.07,0.07)">
		<g transform="">
			<g>
				<circle class="st0" cx="50" cy="50" r="30"/>
			</g>
		</g>
	</g>
	<g transform="translate(168,161) scale(0.07,0.07)">
		<g transform="">
			<g>
				<circle class="st0" cx="50" cy="50" r="30"/>
			</g>
		</g>
	</g>
	<g transform="translate(175,161) scale(0.07,0.07)">
		<g transform="">
			<g>
				<circle class="st0" cx="50" cy="50" r="30"/>
			</g>
		</g>
	</g>
	<g transform="translate(196,161) scale(0.07,0.07)">
		<g transform="">
			<g>
				<circle class="st0" cx="50" cy="50" r="30"/>
			</g>
		</g>
	</g>
	<g transform="translate(56,168) scale(0.07,0.07)">
		<g transform="">
			<g>
				<circle class="st0" cx="50" cy="50" r="30"/>
			</g>
		</g>
	</g>
	<g transform="translate(70,168) scale(0.07,0.07)">
		<g transform="">
			<g>
				<circle class="st0" cx="50" cy="50" r="30"/>
			</g>
		</g>
	</g>
	<g transform="translate(77,168) scale(0.07,0.07)">
		<g transform="">
			<g>
				<circle class="st0" cx="50" cy="50" r="30"/>
			</g>
		</g>
	</g>
	<g transform="translate(84,168) scale(0.07,0.07)">
		<g transform="">
			<g>
				<circle class="st0" cx="50" cy="50" r="30"/>
			</g>
		</g>
	</g>
	<g transform="translate(98,168) scale(0.07,0.07)">
		<g transform="">
			<g>
				<circle class="st0" cx="50" cy="50" r="30"/>
			</g>
		</g>
	</g>
	<g transform="translate(126,168) scale(0.07,0.07)">
		<g transform="">
			<g>
				<circle class="st0" cx="50" cy="50" r="30"/>
			</g>
		</g>
	</g>
	<g transform="translate(133,168) scale(0.07,0.07)">
		<g transform="">
			<g>
				<circle class="st0" cx="50" cy="50" r="30"/>
			</g>
		</g>
	</g>
	<g transform="translate(140,168) scale(0.07,0.07)">
		<g transform="">
			<g>
				<circle class="st0" cx="50" cy="50" r="30"/>
			</g>
		</g>
	</g>
	<g transform="translate(147,168) scale(0.07,0.07)">
		<g transform="">
			<g>
				<circle class="st0" cx="50" cy="50" r="30"/>
			</g>
		</g>
	</g>
	<g transform="translate(154,168) scale(0.07,0.07)">
		<g transform="">
			<g>
				<circle class="st0" cx="50" cy="50" r="30"/>
			</g>
		</g>
	</g>
	<g transform="translate(161,168) scale(0.07,0.07)">
		<g transform="">
			<g>
				<circle class="st0" cx="50" cy="50" r="30"/>
			</g>
		</g>
	</g>
	<g transform="translate(168,168) scale(0.07,0.07)">
		<g transform="">
			<g>
				<circle class="st0" cx="50" cy="50" r="30"/>
			</g>
		</g>
	</g>
	<g transform="translate(189,168) scale(0.07,0.07)">
		<g transform="">
			<g>
				<circle class="st0" cx="50" cy="50" r="30"/>
			</g>
		</g>
	</g>
	<g transform="translate(196,168) scale(0.07,0.07)">
		<g transform="">
			<g>
				<circle class="st0" cx="50" cy="50" r="30"/>
			</g>
		</g>
	</g>
	<g transform="translate(63,175) scale(0.07,0.07)">
		<g transform="">
			<g>
				<circle class="st0" cx="50" cy="50" r="30"/>
			</g>
		</g>
	</g>
	<g transform="translate(70,175) scale(0.07,0.07)">
		<g transform="">
			<g>
				<circle class="st0" cx="50" cy="50" r="30"/>
			</g>
		</g>
	</g>
	<g transform="translate(77,175) scale(0.07,0.07)">
		<g transform="">
			<g>
				<circle class="st0" cx="50" cy="50" r="30"/>
			</g>
		</g>
	</g>
	<g transform="translate(84,175) scale(0.07,0.07)">
		<g transform="">
			<g>
				<circle class="st0" cx="50" cy="50" r="30"/>
			</g>
		</g>
	</g>
	<g transform="translate(91,175) scale(0.07,0.07)">
		<g transform="">
			<g>
				<circle class="st0" cx="50" cy="50" r="30"/>
			</g>
		</g>
	</g>
	<g transform="translate(98,175) scale(0.07,0.07)">
		<g transform="">
			<g>
				<circle class="st0" cx="50" cy="50" r="30"/>
			</g>
		</g>
	</g>
	<g transform="translate(112,175) scale(0.07,0.07)">
		<g transform="">
			<g>
				<circle class="st0" cx="50" cy="50" r="30"/>
			</g>
		</g>
	</g>
	<g transform="translate(161,175) scale(0.07,0.07)">
		<g transform="">
			<g>
				<circle class="st0" cx="50" cy="50" r="30"/>
			</g>
		</g>
	</g>
	<g transform="translate(175,175) scale(0.07,0.07)">
		<g transform="">
			<g>
				<circle class="st0" cx="50" cy="50" r="30"/>
			</g>
		</g>
	</g>
	<g transform="translate(182,175) scale(0.07,0.07)">
		<g transform="">
			<g>
				<circle class="st0" cx="50" cy="50" r="30"/>
			</g>
		</g>
	</g>
	<g transform="translate(189,175) scale(0.07,0.07)">
		<g transform="">
			<g>
				<circle class="st0" cx="50" cy="50" r="30"/>
			</g>
		</g>
	</g>
	<g transform="translate(91,182) scale(0.07,0.07)">
		<g transform="">
			<g>
				<circle class="st0" cx="50" cy="50" r="30"/>
			</g>
		</g>
	</g>
	<g transform="translate(112,182) scale(0.07,0.07)">
		<g transform="">
			<g>
				<circle class="st0" cx="50" cy="50" r="30"/>
			</g>
		</g>
	</g>
	<g transform="translate(126,182) scale(0.07,0.07)">
		<g transform="">
			<g>
				<circle class="st0" cx="50" cy="50" r="30"/>
			</g>
		</g>
	</g>
	<g transform="translate(133,182) scale(0.07,0.07)">
		<g transform="">
			<g>
				<circle class="st0" cx="50" cy="50" r="30"/>
			</g>
		</g>
	</g>
	<g transform="translate(140,182) scale(0.07,0.07)">
		<g transform="">
			<g>
				<circle class="st0" cx="50" cy="50" r="30"/>
			</g>
		</g>
	</g>
	<g transform="translate(147,182) scale(0.07,0.07)">
		<g transform="">
			<g>
				<circle class="st0" cx="50" cy="50" r="30"/>
			</g>
		</g>
	</g>
	<g transform="translate(189,182) scale(0.07,0.07)">
		<g transform="">
			<g>
				<circle class="st0" cx="50" cy="50" r="30"/>
			</g>
		</g>
	</g>
	<g transform="translate(196,182) scale(0.07,0.07)">
		<g transform="">
			<g>
				<circle class="st0" cx="50" cy="50" r="30"/>
			</g>
		</g>
	</g>
	<g transform="translate(63,189) scale(0.07,0.07)">
		<g transform="">
			<g>
				<circle class="st0" cx="50" cy="50" r="30"/>
			</g>
		</g>
	</g>
	<g transform="translate(77,189) scale(0.07,0.07)">
		<g transform="">
			<g>
				<circle class="st0" cx="50" cy="50" r="30"/>
			</g>
		</g>
	</g>
	<g transform="translate(84,189) scale(0.07,0.07)">
		<g transform="">
			<g>
				<circle class="st0" cx="50" cy="50" r="30"/>
			</g>
		</g>
	</g>
	<g transform="translate(91,189) scale(0.07,0.07)">
		<g transform="">
			<g>
				<circle class="st0" cx="50" cy="50" r="30"/>
			</g>
		</g>
	</g>
	<g transform="translate(119,189) scale(0.07,0.07)">
		<g transform="">
			<g>
				<circle class="st0" cx="50" cy="50" r="30"/>
			</g>
		</g>
	</g>
	<g transform="translate(126,189) scale(0.07,0.07)">
		<g transform="">
			<g>
				<circle class="st0" cx="50" cy="50" r="30"/>
			</g>
		</g>
	</g>
	<g transform="translate(133,189) scale(0.07,0.07)">
		<g transform="">
			<g>
				<circle class="st0" cx="50" cy="50" r="30"/>
			</g>
		</g>
	</g>
	<g transform="translate(147,189) scale(0.07,0.07)">
		<g transform="">
			<g>
				<circle class="st0" cx="50" cy="50" r="30"/>
			</g>
		</g>
	</g>
	<g transform="translate(154,189) scale(0.07,0.07)">
		<g transform="">
			<g>
				<circle class="st0" cx="50" cy="50" r="30"/>
			</g>
		</g>
	</g>
	<g transform="translate(161,189) scale(0.07,0.07)">
		<g transform="">
			<g>
				<circle class="st0" cx="50" cy="50" r="30"/>
			</g>
		</g>
	</g>
	<g transform="translate(175,189) scale(0.07,0.07)">
		<g transform="">
			<g>
				<circle class="st0" cx="50" cy="50" r="30"/>
			</g>
		</g>
	</g>
	<g transform="translate(189,189) scale(0.07,0.07)">
		<g transform="">
			<g>
				<circle class="st0" cx="50" cy="50" r="30"/>
			</g>
		</g>
	</g>
	<g transform="translate(196,189) scale(0.07,0.07)">
		<g transform="">
			<g>
				<circle class="st0" cx="50" cy="50" r="30"/>
			</g>
		</g>
	</g>
	<g transform="translate(63,196) scale(0.07,0.07)">
		<g transform="">
			<g>
				<circle class="st0" cx="50" cy="50" r="30"/>
			</g>
		</g>
	</g>
	<g transform="translate(77,196) scale(0.07,0.07)">
		<g transform="">
			<g>
				<circle class="st0" cx="50" cy="50" r="30"/>
			</g>
		</g>
	</g>
	<g transform="translate(84,196) scale(0.07,0.07)">
		<g transform="">
			<g>
				<circle class="st0" cx="50" cy="50" r="30"/>
			</g>
		</g>
	</g>
	<g transform="translate(105,196) scale(0.07,0.07)">
		<g transform="">
			<g>
				<circle class="st0" cx="50" cy="50" r="30"/>
			</g>
		</g>
	</g>
	<g transform="translate(119,196) scale(0.07,0.07)">
		<g transform="">
			<g>
				<circle class="st0" cx="50" cy="50" r="30"/>
			</g>
		</g>
	</g>
	<g transform="translate(133,196) scale(0.07,0.07)">
		<g transform="">
			<g>
				<circle class="st0" cx="50" cy="50" r="30"/>
			</g>
		</g>
	</g>
	<g transform="translate(140,196) scale(0.07,0.07)">
		<g transform="">
			<g>
				<circle class="st0" cx="50" cy="50" r="30"/>
			</g>
		</g>
	</g>
	<g transform="translate(147,196) scale(0.07,0.07)">
		<g transform="">
			<g>
				<circle class="st0" cx="50" cy="50" r="30"/>
			</g>
		</g>
	</g>
	<g transform="translate(168,196) scale(0.07,0.07)">
		<g transform="">
			<g>
				<circle class="st0" cx="50" cy="50" r="30"/>
			</g>
		</g>
	</g>
	<g transform="translate(189,196) scale(0.07,0.07)">
		<g transform="">
			<g>
				<circle class="st0" cx="50" cy="50" r="30"/>
			</g>
		</g>
	</g>
	<g transform="translate(0,0) scale(0.49, 0.49)">
		<g transform="">
			<g>
				<path class="st1" d="M65.9,15H34.1c-4.1,0-7.9,1.3-11,3.4c-2.4,1.7-4.4,3.9-5.8,6.4c-1.5,2.7-2.3,5.7-2.3,8.9v32.5
					C15,76.6,23.6,85,34.1,85L50,85l15.9,0C76.4,85,85,76.6,85,66.2V33.8C85,23.4,76.4,15,65.9,15z"/>
				<path class="st0" d="M65.9,0H34.1l0,0C18.7,0,5.6,10.2,1.4,24.2c-0.4,1.4-0.8,2.9-1,4.4C0.1,30.3,0,32,0,33.8v32.5
					C0,84.8,15.3,100,34.1,100l15.9,0l15.9,0c18.8,0,34.1-15.1,34.1-33.8V33.8C100,15.1,84.7,0,65.9,0z M85,66.2
					C85,76.6,76.4,85,65.9,85L50,85l-15.9,0C23.6,85,15,76.6,15,66.2V33.8c0-3.2,0.8-6.3,2.3-8.9c1.4-2.6,3.4-4.8,5.8-6.4
					c3.1-2.1,6.9-3.4,11-3.4h31.7C76.4,15,85,23.4,85,33.8V66.2z"/>
			</g>
		</g>
	</g>
	<g transform="translate(154,0) scale(0.49, 0.49)">
		<g transform="">
			<g>
				<path class="st1" d="M65.9,15H34.1c-4.1,0-7.9,1.3-11,3.4c-2.4,1.7-4.4,3.9-5.8,6.4c-1.5,2.7-2.3,5.7-2.3,8.9v32.5
					C15,76.6,23.6,85,34.1,85L50,85l15.9,0C76.4,85,85,76.6,85,66.2V33.8C85,23.4,76.4,15,65.9,15z"/>
				<path class="st0" d="M65.9,0H34.1l0,0C18.7,0,5.6,10.2,1.4,24.2c-0.4,1.4-0.8,2.9-1,4.4C0.1,30.3,0,32,0,33.8v32.5
					C0,84.8,15.3,100,34.1,100l15.9,0l15.9,0c18.8,0,34.1-15.1,34.1-33.8V33.8C100,15.1,84.7,0,65.9,0z M85,66.2
					C85,76.6,76.4,85,65.9,85L50,85l-15.9,0C23.6,85,15,76.6,15,66.2V33.8c0-3.2,0.8-6.3,2.3-8.9c1.4-2.6,3.4-4.8,5.8-6.4
					c3.1-2.1,6.9-3.4,11-3.4h31.7C76.4,15,85,23.4,85,33.8V66.2z"/>
			</g>
		</g>
	</g>
	<g transform="translate(0,154) scale(0.49, 0.49)">
		<g transform="">
			<g>
				<path class="st1" d="M65.9,15H34.1c-4.1,0-7.9,1.3-11,3.4c-2.4,1.7-4.4,3.9-5.8,6.4c-1.5,2.7-2.3,5.7-2.3,8.9v32.5
					C15,76.6,23.6,85,34.1,85L50,85l15.9,0C76.4,85,85,76.6,85,66.2V33.8C85,23.4,76.4,15,65.9,15z"/>
				<path class="st0" d="M65.9,0H34.1l0,0C18.7,0,5.6,10.2,1.4,24.2c-0.4,1.4-0.8,2.9-1,4.4C0.1,30.3,0,32,0,33.8v32.5
					C0,84.8,15.3,100,34.1,100l15.9,0l15.9,0c18.8,0,34.1-15.1,34.1-33.8V33.8C100,15.1,84.7,0,65.9,0z M85,66.2
					C85,76.6,76.4,85,65.9,85L50,85l-15.9,0C23.6,85,15,76.6,15,66.2V33.8c0-3.2,0.8-6.3,2.3-8.9c1.4-2.6,3.4-4.8,5.8-6.4
					c3.1-2.1,6.9-3.4,11-3.4h31.7C76.4,15,85,23.4,85,33.8V66.2z"/>
			</g>
		</g>
	</g>
	<g transform="translate(14,14) scale(0.20588235294118, 0.20588235294118)">
		<g transform="">
			<circle class="st0" cx="50" cy="50" r="50"/>
		</g>
	</g>
	<g transform="translate(168,14) scale(0.20588235294118, 0.20588235294118)">
		<g transform="">
			<circle class="st0" cx="50" cy="50" r="50"/>
		</g>
	</g>
	<g transform="translate(14,168) scale(0.20588235294118, 0.20588235294118)">
		<g transform="">
			<circle class="st0" cx="50" cy="50" r="50"/>
		</g>
	</g>
</g>
</svg>
